<?xml version="1.0" standalone="no"?><!DOCTYPE svg PUBLIC "-//W3C//DTD SVG 1.1//EN" "http://www.w3.org/Graphics/SVG/1.1/DTD/svg11.dtd"><svg t="1652446639391" class="icon" viewBox="0 0 1024 1024" version="1.1" xmlns="http://www.w3.org/2000/svg" p-id="2312" xmlns:xlink="http://www.w3.org/1999/xlink" width="200" height="200"><defs><style type="text/css">@font-face { font-family: feedback-iconfont; src: url("//at.alicdn.com/t/font_1031158_u69w8yhxdu.woff2?t=1630033759944") format("woff2"), url("//at.alicdn.com/t/font_1031158_u69w8yhxdu.woff?t=1630033759944") format("woff"), url("//at.alicdn.com/t/font_1031158_u69w8yhxdu.ttf?t=1630033759944") format("truetype"); }
</style></defs><path d="M810.666667 128H213.333333C142.762667 128 85.333333 185.429333 85.333333 256v512c0 70.570667 57.429333 128 128 128h597.333334c70.570667 0 128-57.429333 128-128V256c0-70.570667-57.429333-128-128-128z m0 682.666667H213.333333a42.666667 42.666667 0 0 1-42.666666-42.666667v-256h85.333333v170.666667h85.333333v-170.666667h42.666667v170.666667h85.333333v-170.666667h42.666667v170.666667h85.333333v-170.666667h85.333334v170.666667h85.333333v-170.666667h85.333333v256a42.666667 42.666667 0 0 1-42.666666 42.666667z" p-id="2313" fill="#cdcdcd"></path></svg>